<mxfile host="app.diagrams.net" modified="2021-08-13T20:20:15.503Z" agent="5.0 (X11; Linux x86_64) AppleWebKit/537.36 (KHTML, like Gecko) Chrome/89.0.4389.105 YaBrowser/21.3.3.1195 (beta) Yowser/2.5 Safari/537.36" etag="o0gInzDisDoWRR1AtLIG" version="14.9.5" type="github">
  <diagram id="vmFTHvYqOSu2tKH4xOsN" name="Page-1">
    <mxGraphModel dx="1422" dy="771" grid="1" gridSize="10" guides="1" tooltips="1" connect="1" arrows="1" fold="1" page="1" pageScale="1" pageWidth="827" pageHeight="1169" math="0" shadow="0">
      <root>
        <mxCell id="0" />
        <mxCell id="1" parent="0" />
        <mxCell id="6YLKdICL6UcyctjEJULU-2" value="List" style="swimlane;fontStyle=0;childLayout=stackLayout;horizontal=1;startSize=26;horizontalStack=0;resizeParent=1;resizeParentMax=0;resizeLast=0;collapsible=1;marginBottom=0;" vertex="1" parent="1">
          <mxGeometry x="80" y="80" width="200" height="364" as="geometry" />
        </mxCell>
        <mxCell id="6YLKdICL6UcyctjEJULU-3" value="id" style="text;strokeColor=none;fillColor=none;align=left;verticalAlign=top;spacingLeft=4;spacingRight=4;overflow=hidden;rotatable=0;points=[[0,0.5],[1,0.5]];portConstraint=eastwest;" vertex="1" parent="6YLKdICL6UcyctjEJULU-2">
          <mxGeometry y="26" width="200" height="26" as="geometry" />
        </mxCell>
        <mxCell id="6YLKdICL6UcyctjEJULU-6" value="path" style="text;strokeColor=none;fillColor=none;align=left;verticalAlign=top;spacingLeft=4;spacingRight=4;overflow=hidden;rotatable=0;points=[[0,0.5],[1,0.5]];portConstraint=eastwest;" vertex="1" parent="6YLKdICL6UcyctjEJULU-2">
          <mxGeometry y="52" width="200" height="26" as="geometry" />
        </mxCell>
        <mxCell id="6YLKdICL6UcyctjEJULU-4" value="name" style="text;strokeColor=none;fillColor=none;align=left;verticalAlign=top;spacingLeft=4;spacingRight=4;overflow=hidden;rotatable=0;points=[[0,0.5],[1,0.5]];portConstraint=eastwest;" vertex="1" parent="6YLKdICL6UcyctjEJULU-2">
          <mxGeometry y="78" width="200" height="26" as="geometry" />
        </mxCell>
        <mxCell id="6YLKdICL6UcyctjEJULU-5" value="title" style="text;strokeColor=none;fillColor=none;align=left;verticalAlign=top;spacingLeft=4;spacingRight=4;overflow=hidden;rotatable=0;points=[[0,0.5],[1,0.5]];portConstraint=eastwest;" vertex="1" parent="6YLKdICL6UcyctjEJULU-2">
          <mxGeometry y="104" width="200" height="26" as="geometry" />
        </mxCell>
        <mxCell id="6YLKdICL6UcyctjEJULU-8" value="title" style="text;strokeColor=none;fillColor=none;align=left;verticalAlign=top;spacingLeft=4;spacingRight=4;overflow=hidden;rotatable=0;points=[[0,0.5],[1,0.5]];portConstraint=eastwest;" vertex="1" parent="6YLKdICL6UcyctjEJULU-2">
          <mxGeometry y="130" width="200" height="26" as="geometry" />
        </mxCell>
        <mxCell id="6YLKdICL6UcyctjEJULU-9" value="title" style="text;strokeColor=none;fillColor=none;align=left;verticalAlign=top;spacingLeft=4;spacingRight=4;overflow=hidden;rotatable=0;points=[[0,0.5],[1,0.5]];portConstraint=eastwest;" vertex="1" parent="6YLKdICL6UcyctjEJULU-2">
          <mxGeometry y="156" width="200" height="26" as="geometry" />
        </mxCell>
        <mxCell id="6YLKdICL6UcyctjEJULU-10" value="title" style="text;strokeColor=none;fillColor=none;align=left;verticalAlign=top;spacingLeft=4;spacingRight=4;overflow=hidden;rotatable=0;points=[[0,0.5],[1,0.5]];portConstraint=eastwest;" vertex="1" parent="6YLKdICL6UcyctjEJULU-2">
          <mxGeometry y="182" width="200" height="26" as="geometry" />
        </mxCell>
        <mxCell id="6YLKdICL6UcyctjEJULU-11" value="title" style="text;strokeColor=none;fillColor=none;align=left;verticalAlign=top;spacingLeft=4;spacingRight=4;overflow=hidden;rotatable=0;points=[[0,0.5],[1,0.5]];portConstraint=eastwest;" vertex="1" parent="6YLKdICL6UcyctjEJULU-2">
          <mxGeometry y="208" width="200" height="26" as="geometry" />
        </mxCell>
        <mxCell id="6YLKdICL6UcyctjEJULU-12" value="title" style="text;strokeColor=none;fillColor=none;align=left;verticalAlign=top;spacingLeft=4;spacingRight=4;overflow=hidden;rotatable=0;points=[[0,0.5],[1,0.5]];portConstraint=eastwest;" vertex="1" parent="6YLKdICL6UcyctjEJULU-2">
          <mxGeometry y="234" width="200" height="26" as="geometry" />
        </mxCell>
        <mxCell id="6YLKdICL6UcyctjEJULU-13" value="title" style="text;strokeColor=none;fillColor=none;align=left;verticalAlign=top;spacingLeft=4;spacingRight=4;overflow=hidden;rotatable=0;points=[[0,0.5],[1,0.5]];portConstraint=eastwest;" vertex="1" parent="6YLKdICL6UcyctjEJULU-2">
          <mxGeometry y="260" width="200" height="26" as="geometry" />
        </mxCell>
        <mxCell id="6YLKdICL6UcyctjEJULU-14" value="title" style="text;strokeColor=none;fillColor=none;align=left;verticalAlign=top;spacingLeft=4;spacingRight=4;overflow=hidden;rotatable=0;points=[[0,0.5],[1,0.5]];portConstraint=eastwest;" vertex="1" parent="6YLKdICL6UcyctjEJULU-2">
          <mxGeometry y="286" width="200" height="26" as="geometry" />
        </mxCell>
        <mxCell id="6YLKdICL6UcyctjEJULU-15" value="title" style="text;strokeColor=none;fillColor=none;align=left;verticalAlign=top;spacingLeft=4;spacingRight=4;overflow=hidden;rotatable=0;points=[[0,0.5],[1,0.5]];portConstraint=eastwest;" vertex="1" parent="6YLKdICL6UcyctjEJULU-2">
          <mxGeometry y="312" width="200" height="26" as="geometry" />
        </mxCell>
        <mxCell id="6YLKdICL6UcyctjEJULU-16" value="title" style="text;strokeColor=none;fillColor=none;align=left;verticalAlign=top;spacingLeft=4;spacingRight=4;overflow=hidden;rotatable=0;points=[[0,0.5],[1,0.5]];portConstraint=eastwest;" vertex="1" parent="6YLKdICL6UcyctjEJULU-2">
          <mxGeometry y="338" width="200" height="26" as="geometry" />
        </mxCell>
        <mxCell id="6YLKdICL6UcyctjEJULU-7" value="&#39;id&#39; =&gt; $this-&gt;primaryKey(),&#xa;            &#39;path&#39; =&gt;  $this-&gt;string(2048)-&gt;notNull()-&gt;unique(),&#xa;            &#39;name&#39; =&gt;  $this-&gt;string(2048)-&gt;notNull()-&gt;unique(),&#xa;            &#39;title&#39; =&gt;  $this-&gt;string(255),&#xa;            &#39;hash_id&#39; =&gt; $this-&gt;string(32)-&gt;notNull()-&gt;unique(),&#xa;            &#39;parent_id&#39; =&gt;  $this-&gt;integer()-&gt;notNull(),&#xa;            &#39;owner_id&#39; =&gt;  $this-&gt;integer()-&gt;notNull(),&#xa;            &#39;cms_tree_id&#39; =&gt;  $this-&gt;integer()-&gt;notNull()-&gt;defaultValue(0),&#xa;//            &#39;cms_page_type_id&#39; =&gt;  $this-&gt;integer()-&gt;notNull()-&gt;defaultValue(1),&#xa;            &#39;level&#39; =&gt; $this-&gt;integer(1024)-&gt;notNull(),&#xa;            &#39;path_length&#39; =&gt; $this-&gt;integer(2048)-&gt;notNull(),&#xa;            &#39;is_active&#39; =&gt; $this-&gt;tinyInteger()-&gt;defaultValue(0),&#xa;            &#39;created_at&#39; =&gt; $this-&gt;date()-&gt;defaultExpression(&#39;NOW()&#39;),&#xa;            &#39;updated_at&#39; =&gt; $this-&gt;date()," style="text;whiteSpace=wrap;html=1;" vertex="1" parent="1">
          <mxGeometry x="460" y="110" width="390" height="210" as="geometry" />
        </mxCell>
      </root>
    </mxGraphModel>
  </diagram>
</mxfile>
